# xmcd
#
# Track frame offsets: 
#        150
#        13774
#        29304
#        46267
#        66497
#        84906
#        98791
#        119448
#        133082
#        147313
#        160055
#
# Disc length: 2346 seconds
#
# Revision: 0
# Processed by: cddbd v1.5.1PL0 Copyright (c) Steve Scherf et al.
# Submitted via: ExactAudioCopy v0.95a3
#
DISCID=9209280b
DTITLE=ruby's grace - this ocean
DYEAR=2004
DGENRE=Acoustic
TTITLE0=dry
TTITLE1=sunshine
TTITLE2=mow your lawn
TTITLE3=this ocean
TTITLE4=another good thing
TTITLE5=so many questions
TTITLE6=walking over the sea
TTITLE7=settle my heart
TTITLE8=ablaze
TTITLE9=nice paper rolls
TTITLE10=like the night
EXTD=
EXTT0=
EXTT1=
EXTT2=
EXTT3=
EXTT4=
EXTT5=
EXTT6=
EXTT7=
EXTT8=
EXTT9=
EXTT10=
PLAYORDER=
